# xmcd CD database file
#
# Track frame offsets:
#	150
#	13480
#	42762
#	59510
#	72627
#	93132
#	101942
#	113542
#	129225
#	142207
#	165730
#	176980
#	187132
#	199915
#	215850
#	242065
#
# Disc length: 3277 seconds
#
# Revision: 0
# Processed by: cddbd v1.5.2PL0 Copyright (c) Steve Scherf et al.
# Submitted via: CDex 1.51
#
DISCID=010ccb10
DTITLE=Richard Weihs - Da ärgste Ruaß
DYEAR=1994
DGENRE=Blues
TTITLE0=Friß die Krot!
TTITLE1=Simmering Heart
TTITLE2=Die Füzlaus
TTITLE3=Grantscherbn Blues
TTITLE4=Fernschaun
TTITLE5=Devisen-Jodler
TTITLE6=Da Dokta
TTITLE7=O Leib voll Blut und Säften
TTITLE8=Schrammelschmoiz
TTITLE9=Krematorium Blues
TTITLE10=Jaga-T
TTITLE11=Ringlgschpü
TTITLE12=A so a Schas!
TTITLE13=Dreckiches Wien
TTITLE14=Schmähstad
TTITLE15=Dirty Vienna Revisited
EXTD=YEAR: 1994
EXTT0=
EXTT1=
EXTT2=
EXTT3=
EXTT4=
EXTT5=
EXTT6=
EXTT7=
EXTT8=
EXTT9=
EXTT10=
EXTT11=
EXTT12=
EXTT13=
EXTT14=
EXTT15=
PLAYORDER=
